<svg width="22" height="23" viewBox="0 0 22 23" fill="none" xmlns="http://www.w3.org/2000/svg">
<path d="M17.8766 8.93813C17.8766 10.9105 17.2363 12.7324 16.1577 14.2106L21.5978 19.655C22.135 20.1922 22.135 21.0645 21.5978 21.6016C21.0607 22.1387 20.1884 22.1387 19.6512 21.6016L14.2112 16.1572C12.733 17.2401 10.911 17.876 8.93864 17.876C4.00131 17.876 0.000732422 13.8755 0.000732422 8.93813C0.000732422 4.00079 4.00131 0.000213623 8.93864 0.000213623C13.876 0.000213623 17.8766 4.00079 17.8766 8.93813ZM8.93864 15.1259C9.75123 15.1259 10.5559 14.9659 11.3066 14.6549C12.0573 14.3439 12.7395 13.8881 13.3141 13.3136C13.8887 12.739 14.3444 12.0568 14.6554 11.3061C14.9664 10.5554 15.1264 9.75072 15.1264 8.93813C15.1264 8.12554 14.9664 7.3209 14.6554 6.57016C14.3444 5.81943 13.8887 5.13729 13.3141 4.5627C12.7395 3.98811 12.0573 3.53232 11.3066 3.22136C10.5559 2.91039 9.75123 2.75034 8.93864 2.75034C8.12605 2.75034 7.32142 2.91039 6.57068 3.22136C5.81994 3.53232 5.13781 3.98811 4.56322 4.5627C3.98863 5.13729 3.53284 5.81943 3.22188 6.57016C2.91091 7.3209 2.75086 8.12554 2.75086 8.93813C2.75086 9.75072 2.91091 10.5554 3.22188 11.3061C3.53284 12.0568 3.98863 12.739 4.56322 13.3136C5.13781 13.8881 5.81994 14.3439 6.57068 14.6549C7.32142 14.9659 8.12605 15.1259 8.93864 15.1259Z" fill="white"/>
</svg>
