<svg width="25" height="22" viewBox="0 0 25 22" fill="none" xmlns="http://www.w3.org/2000/svg">
<path d="M0.00146484 1.253C0.00146484 0.694092 0.451111 0.244446 1.01002 0.244446H2.92207C3.84657 0.244446 4.66602 0.78234 5.04843 1.58918H22.3199C23.4251 1.58918 24.2319 2.63976 23.942 3.70714L22.219 10.1073C21.8618 11.4268 20.6642 12.3471 19.2984 12.3471H7.1748L7.40172 13.5447C7.49417 14.0196 7.9102 14.3642 8.39346 14.3642H20.5087C21.0676 14.3642 21.5173 14.8138 21.5173 15.3727C21.5173 15.9316 21.0676 16.3813 20.5087 16.3813H8.39346C6.93947 16.3813 5.69138 15.3475 5.42244 13.9229L3.25405 2.5347C3.22463 2.37501 3.08595 2.26155 2.92207 2.26155H1.01002C0.451111 2.26155 0.00146484 1.8119 0.00146484 1.253ZM5.38041 19.7431C5.38041 19.4782 5.43259 19.2159 5.53396 18.9712C5.63532 18.7265 5.7839 18.5041 5.97121 18.3168C6.15851 18.1295 6.38088 17.9809 6.6256 17.8796C6.87033 17.7782 7.13263 17.726 7.39752 17.726C7.66241 17.726 7.9247 17.7782 8.16943 17.8796C8.41416 17.9809 8.63652 18.1295 8.82383 18.3168C9.01113 18.5041 9.15971 18.7265 9.26108 18.9712C9.36245 19.2159 9.41462 19.4782 9.41462 19.7431C9.41462 20.008 9.36245 20.2703 9.26108 20.515C9.15971 20.7598 9.01113 20.9821 8.82383 21.1694C8.63652 21.3567 8.41416 21.5053 8.16943 21.6067C7.9247 21.7081 7.66241 21.7602 7.39752 21.7602C7.13263 21.7602 6.87033 21.7081 6.6256 21.6067C6.38088 21.5053 6.15851 21.3567 5.97121 21.1694C5.7839 20.9821 5.63532 20.7598 5.53396 20.515C5.43259 20.2703 5.38041 20.008 5.38041 19.7431ZM19.5001 17.726C20.0351 17.726 20.5482 17.9385 20.9265 18.3168C21.3047 18.6951 21.5173 19.2082 21.5173 19.7431C21.5173 20.2781 21.3047 20.7912 20.9265 21.1694C20.5482 21.5477 20.0351 21.7602 19.5001 21.7602C18.9652 21.7602 18.4521 21.5477 18.0738 21.1694C17.6956 20.7912 17.483 20.2781 17.483 19.7431C17.483 19.2082 17.6956 18.6951 18.0738 18.3168C18.4521 17.9385 18.9652 17.726 19.5001 17.726Z" fill="white"/>
</svg>
