<svg width="32" height="32" viewBox="0 0 32 32" fill="none" xmlns="http://www.w3.org/2000/svg">
<path d="M17.3264 5.01004C17.0817 4.50215 16.5646 4.17896 15.9967 4.17896C15.4288 4.17896 14.9163 4.50215 14.667 5.01004L11.6982 11.1185L5.06803 12.0973C4.51398 12.1804 4.05227 12.5683 3.88143 13.0992C3.7106 13.6302 3.84911 14.2166 4.24618 14.609L9.0572 19.3693L7.9214 26.0964C7.82905 26.6505 8.05991 27.2138 8.517 27.5416C8.9741 27.8694 9.57894 27.911 10.0776 27.6478L16.0013 24.4851L21.9251 27.6478C22.4237 27.911 23.0286 27.874 23.4856 27.5416C23.9427 27.2092 24.1736 26.6505 24.0813 26.0964L22.9408 19.3693L27.7519 14.609C28.1489 14.2166 28.292 13.6302 28.1166 13.0992C27.9411 12.5683 27.4841 12.1804 26.93 12.0973L20.2952 11.1185L17.3264 5.01004Z" fill="#FFC300"/>
</svg>
